<svg xmlns="http://www.w3.org/2000/svg" width="64" height="64" viewBox="0 0 64 64">
  <defs>
    <style>
      .cls-1 {
        fill: #fff;
        fill-rule: evenodd;
      }
    </style>
  </defs>
  <g id="返回icon">
    <path id="二级页返回" class="cls-1" d="M475.209,5894.11H449.814l10.416,10.44a3.171,3.171,0,0,1-4.479,4.49l-15.2-15.24a2.8,2.8,0,0,1-1.549-2.5v-0.74a2.806,2.806,0,0,1,1.744-2.6l15.007-15.04a3.171,3.171,0,0,1,4.479,4.49l-10.319,10.34h25.3a2.805,2.805,0,0,1,2.8,2.81v0.74A2.805,2.805,0,0,1,475.209,5894.11Z" transform="translate(-426 -5859)"/>
  </g>
</svg>
