<svg xmlns="http://www.w3.org/2000/svg" width="64" height="64" viewBox="0 0 64 64">
  <defs>
    <style>
      .cls-1 {
        fill: #fff;
        fill-rule: evenodd;
      }
    </style>
  </defs>
  <g id="规则icon">
    <path id="规则" class="cls-1" d="M542.7,5899.51h5.725a0.766,0.766,0,0,0,.53-0.19,0.583,0.583,0,0,0,.217-0.46v-1.81a3.414,3.414,0,0,1,.934-2.44,17.632,17.632,0,0,1,2.925-2.33c1.286-.89,2.323-2.64,3.112-3.36a9.647,9.647,0,0,0-.467-14.15,13.457,13.457,0,0,0-8.869-2.76,16.186,16.186,0,0,0-6.659,1.31,10.644,10.644,0,0,0-4.544,3.69,9.452,9.452,0,0,0-1.618,5.44v0.8a0.647,0.647,0,0,0,.218.48,0.742,0.742,0,0,0,.529.22l5.726,0.21a0.6,0.6,0,0,0,.747-0.59v-1.12a4.4,4.4,0,0,1,1.494-3.43,5.663,5.663,0,0,1,3.92-1.34,5.326,5.326,0,0,1,3.7,1.26,4.276,4.276,0,0,1,1.4,3.35,4.532,4.532,0,0,1-1.12,3.13,19.422,19.422,0,0,1-3.361,2.81c-1.162.78-2.085,2.43-2.77,3.04a8.383,8.383,0,0,0-1.773,2.24,6.414,6.414,0,0,0-.747,3.16v2.19a0.577,0.577,0,0,0,.218.46,0.758,0.758,0,0,0,.529.19h0Zm2.8,11.5a4.663,4.663,0,0,0,3.174-1.07,3.431,3.431,0,0,0,1.245-2.73,3.371,3.371,0,0,0-1.245-2.7,5.363,5.363,0,0,0-6.348,0,3.37,3.37,0,0,0-1.244,2.7,3.43,3.43,0,0,0,1.244,2.73,4.663,4.663,0,0,0,3.174,1.07h0Z" transform="translate(-515 -5859)"/>
  </g>
</svg>
